<svg xmlns="http://www.w3.org/2000/svg" width="781" height="613" viewBox="0 0 781 613">
  <g id="Grupo_58435" data-name="Grupo 58435" transform="translate(-212 -13506)">
    <g id="Grupo_58434" data-name="Grupo 58434" transform="translate(294.037 13514.857)">
      <path id="Trazado_102094" data-name="Trazado 102094" d="M965.787,1607.3H767.518a12.345,12.345,0,0,1-12.331-12.332V1386.692a7.7,7.7,0,0,0-7.7-7.7H630.332a7.7,7.7,0,0,0-7.7,7.7v208.281A12.345,12.345,0,0,1,610.3,1607.3H499.155a12.344,12.344,0,0,1-12.331-12.332v-218.3h4.636v218.3a7.7,7.7,0,0,0,7.695,7.7H610.3a7.705,7.705,0,0,0,7.7-7.7V1386.692a12.346,12.346,0,0,1,12.331-12.332H747.491a12.346,12.346,0,0,1,12.331,12.332v208.281a7.705,7.705,0,0,0,7.7,7.7H965.787Z" transform="translate(-486.824 -1374.359)" fill="#12263f"/>
    </g>
    <g id="Rectángulo_5624" data-name="Rectángulo 5624" transform="translate(212 13506)" fill="#fff" stroke="#e8e8e8" stroke-width="3">
      <rect width="131" height="61" rx="10" stroke="none"/>
      <rect x="1.5" y="1.5" width="128" height="58" rx="8.5" fill="none"/>
    </g>
    <g id="Rectángulo_5628" data-name="Rectángulo 5628" transform="translate(375 13506)" fill="#fff" stroke="#e8e8e8" stroke-width="3">
      <rect width="132" height="61" rx="10" stroke="none"/>
      <rect x="1.5" y="1.5" width="129" height="58" rx="8.5" fill="none"/>
    </g>
    <g id="Rectángulo_5632" data-name="Rectángulo 5632" transform="translate(545 13506)" fill="#fff" stroke="#e8e8e8" stroke-width="3">
      <rect width="130" height="61" rx="10" stroke="none"/>
      <rect x="1.5" y="1.5" width="127" height="58" rx="8.5" fill="none"/>
    </g>
    <g id="Rectángulo_5625" data-name="Rectángulo 5625" transform="translate(212 13575)" fill="#fff" stroke="#e8e8e8" stroke-width="3">
      <rect width="131" height="61" rx="10" stroke="none"/>
      <rect x="1.5" y="1.5" width="128" height="58" rx="8.5" fill="none"/>
    </g>
    <g id="Rectángulo_5629" data-name="Rectángulo 5629" transform="translate(375 13575)" fill="#fff" stroke="#e8e8e8" stroke-width="3">
      <rect width="132" height="61" rx="10" stroke="none"/>
      <rect x="1.5" y="1.5" width="129" height="58" rx="8.5" fill="none"/>
    </g>
    <g id="Rectángulo_5633" data-name="Rectángulo 5633" transform="translate(545 13575)" fill="#fff" stroke="#e8e8e8" stroke-width="3">
      <rect width="130" height="61" rx="10" stroke="none"/>
      <rect x="1.5" y="1.5" width="127" height="58" rx="8.5" fill="none"/>
    </g>
    <g id="Rectángulo_5626" data-name="Rectángulo 5626" transform="translate(212 13645)" fill="#fff" stroke="#e8e8e8" stroke-width="3">
      <rect width="131" height="60" rx="10" stroke="none"/>
      <rect x="1.5" y="1.5" width="128" height="57" rx="8.5" fill="none"/>
    </g>
    <g id="Rectángulo_5630" data-name="Rectángulo 5630" transform="translate(375 13645)" fill="#fff" stroke="#e8e8e8" stroke-width="3">
      <rect width="132" height="60" rx="10" stroke="none"/>
      <rect x="1.5" y="1.5" width="129" height="57" rx="8.5" fill="none"/>
    </g>
    <g id="Rectángulo_5634" data-name="Rectángulo 5634" transform="translate(545 13645)" fill="#fff" stroke="#e8e8e8" stroke-width="3">
      <rect width="130" height="60" rx="10" stroke="none"/>
      <rect x="1.5" y="1.5" width="127" height="57" rx="8.5" fill="none"/>
    </g>
    <g id="Rectángulo_5627" data-name="Rectángulo 5627" transform="translate(212 13714)" fill="#fff" stroke="#e8e8e8" stroke-width="3">
      <rect width="131" height="61" rx="10" stroke="none"/>
      <rect x="1.5" y="1.5" width="128" height="58" rx="8.5" fill="none"/>
    </g>
    <g id="Rectángulo_5631" data-name="Rectángulo 5631" transform="translate(375 13714)" fill="#fff" stroke="#e8e8e8" stroke-width="3">
      <rect width="132" height="61" rx="10" stroke="none"/>
      <rect x="1.5" y="1.5" width="129" height="58" rx="8.5" fill="none"/>
    </g>
    <g id="Rectángulo_5635" data-name="Rectángulo 5635" transform="translate(545 13714)" fill="#fff" stroke="#e8e8e8" stroke-width="3">
      <rect width="130" height="61" rx="10" stroke="none"/>
      <rect x="1.5" y="1.5" width="127" height="58" rx="8.5" fill="none"/>
    </g>
    <g id="Rectángulo_5641" data-name="Rectángulo 5641" transform="translate(862 13788)" fill="#fff" stroke="#e8e8e8" stroke-width="3">
      <rect width="131" height="60" rx="10" stroke="none"/>
      <rect x="1.5" y="1.5" width="128" height="57" rx="8.5" fill="none"/>
    </g>
    <g id="Rectángulo_5642" data-name="Rectángulo 5642" transform="translate(862 13876)" fill="#fff" stroke="#e8e8e8" stroke-width="3">
      <rect width="131" height="61" rx="10" stroke="none"/>
      <rect x="1.5" y="1.5" width="128" height="58" rx="8.5" fill="none"/>
    </g>
    <g id="Rectángulo_5643" data-name="Rectángulo 5643" transform="translate(862 13966)" fill="#fff" stroke="#e8e8e8" stroke-width="3">
      <rect width="131" height="61" rx="10" stroke="none"/>
      <rect x="1.5" y="1.5" width="128" height="58" rx="8.5" fill="none"/>
    </g>
    <g id="Rectángulo_5644" data-name="Rectángulo 5644" transform="translate(862 14057)" fill="#fff" stroke="#e8e8e8" stroke-width="3">
      <rect width="131" height="62" rx="10" stroke="none"/>
      <rect x="1.5" y="1.5" width="128" height="59" rx="8.5" fill="none"/>
    </g>
    <rect id="Rectángulo_5640" data-name="Rectángulo 5640" width="50" height="31" rx="8" transform="translate(903 13729)" fill="#4dbe98"/>
    <rect id="Rectángulo_5645" data-name="Rectángulo 5645" width="50" height="32" rx="8" transform="translate(748 13659)" fill="#ea526f"/>
    <g id="Rectángulo_5639" data-name="Rectángulo 5639" transform="translate(862 13645)" fill="#fff" stroke="#ea526f" stroke-width="4">
      <rect width="131" height="60" rx="10" stroke="none"/>
      <rect x="2" y="2" width="127" height="56" rx="8" fill="none"/>
    </g>
    <text id="Inicio" transform="translate(264 13539)" fill="#12263f" font-size="12" font-family="Roboto-Regular, Roboto"><tspan x="0" y="0">Inicio</tspan></text>
    <text id="Identificar_causas_potenciales" data-name="Identificar causas potenciales" transform="translate(441 13533)" fill="#12263f" font-size="12" font-family="Roboto-Regular, Roboto"><tspan x="-28.163" y="0">Identificar </tspan><tspan x="-51.475" y="13">causas potenciales</tspan></text>
    <text id="Validar_causas" data-name="Validar causas" transform="translate(610 13539)" fill="#12263f" font-size="12" font-family="Roboto-Regular, Roboto"><tspan x="-39.185" y="0">Validar causas</tspan></text>
    <text id="Realizar_Project_Charter" data-name="Realizar Project Charter" transform="translate(278 13601)" fill="#12263f" font-size="12" font-family="Roboto-Regular, Roboto"><tspan x="-22.802" y="0">Realizar </tspan><tspan x="-40.195" y="13">Project Charter</tspan></text>
    <text id="Validar_sistema_de_medición" data-name="Validar sistemade medición" transform="translate(441 13601)" fill="#12263f" font-size="12" font-family="Roboto-Regular, Roboto"><tspan x="-41.326" y="0">Validar sistema</tspan><tspan x="-32.654" y="13">de medición</tspan></text>
    <text id="Priorizar_y_seleccionar_causas" data-name="Priorizar y
seleccionar causas" transform="translate(610 13601)" fill="#12263f" font-size="12" font-family="Roboto-Regular, Roboto"><tspan x="-26.771" y="0">Priorizar y</tspan><tspan x="-51.319" y="13">seleccionar causas</tspan></text>
    <text id="Hacer_mapeo_del_proceso" data-name="Hacer mapeodel proceso" transform="translate(278 13670)" fill="#12263f" font-size="12" font-family="Roboto-Regular, Roboto"><tspan x="-35.865" y="0">Hacer mapeo</tspan><tspan x="-31.099" y="13">del proceso</tspan></text>
    <text id="Definir_plan_de_recolección" data-name="Definir plan derecolección" transform="translate(441 13670)" fill="#12263f" font-size="12" font-family="Roboto-Regular, Roboto"><tspan x="-38.162" y="0">Definir plan de</tspan><tspan x="-30.82" y="13">recolección</tspan></text>
    <text id="Definir_acciones_de_mejora" data-name="Definir acciones
de mejora" transform="translate(610 13670)" fill="#12263f" font-size="12" font-family="Roboto-Regular, Roboto"><tspan x="-42.724" y="0">Definir acciones</tspan><tspan x="-26.517" y="13">de mejora</tspan></text>
    <text id="Definir_variables_y_métricas_del_proceso" data-name="Definir variables y
métricas del proceso" transform="translate(278 13742)" fill="#12263f" font-size="12" font-family="Roboto-Regular, Roboto"><tspan x="-47.013" y="0">Definir variables y</tspan><tspan x="-55.966" y="13">métricas del proceso</tspan></text>
    <text id="Analizar_datos" data-name="Analizar datos" transform="translate(441 13748)" fill="#12263f" font-size="12" font-family="Roboto-Regular, Roboto"><tspan x="-38.218" y="0">Analizar datos</tspan></text>
    <text id="Implementar_acciones_de_mejora" data-name="Implementaracciones de mejora" transform="translate(610 13737)" fill="#12263f" font-size="12" font-family="Roboto-Regular, Roboto"><tspan x="-33.894" y="0">Implementar</tspan><tspan x="-33.539" y="13">acciones de </tspan><tspan x="-18.469" y="26">mejora</tspan></text>
    <text id="Estandarizar_e_integrar_las_mejoras" data-name="Estandarizar e integrarlas mejoras" transform="translate(927 13814)" fill="#12263f" font-size="12" font-family="Roboto-Regular, Roboto"><tspan x="-60.067" y="0">Estandarizar e integrar</tspan><tspan x="-30.861" y="13">las mejoras</tspan></text>
    <text id="Definir_mecanismos_de_control" data-name="Definir mecanismosde control" transform="translate(929 13905)" fill="#12263f" font-size="12" font-family="Roboto-Regular, Roboto"><tspan x="-53.194" y="0">Definir mecanismos</tspan><tspan x="-26.73" y="13">de control</tspan></text>
    <text id="Cierre_de_proyectos" data-name="Cierre de proyectos" transform="translate(927 14000)" fill="#12263f" font-size="12" font-family="Roboto-Regular, Roboto"><tspan x="-51.51" y="0">Cierre de proyectos</tspan></text>
    <text id="Fin" transform="translate(928 14092)" fill="#12263f" font-size="12" font-family="Roboto-Regular, Roboto"><tspan x="-8.083" y="0">Fin</tspan></text>
    <text id="SÍ" transform="translate(929 13750)" fill="#fefefe" font-size="12" font-family="Roboto-Black, Roboto" font-weight="800"><tspan x="-5.566" y="0">SÍ</tspan></text>
    <text id="_Se_cumplió_el_objetivo_del_proyecto_" data-name="¿Se cumplió el 
objetivo del proyecto?" transform="translate(927 13671)" fill="#12263f" font-size="12" font-family="Roboto-Regular, Roboto"><tspan x="-40.075" y="0">¿Se cumplió el </tspan><tspan x="-58.081" y="13">objetivo del proyecto?</tspan></text>
    <g id="right-arrow_1_" data-name="right-arrow (1)" transform="translate(833.368 13733.718)">
      <g id="Grupo_57503" data-name="Grupo 57503" transform="translate(0 0)">
        <path id="Trazado_101707" data-name="Trazado 101707" d="M27.26,51.793l-10-10a1.521,1.521,0,0,0-2.144,0L14.2,42.7a1.5,1.5,0,0,0-.443,1.072,1.535,1.535,0,0,0,.443,1.085L20.039,50.7H1.5A1.48,1.48,0,0,0,0,52.194v1.284a1.536,1.536,0,0,0,1.5,1.557H20.105l-5.9,5.882a1.5,1.5,0,0,0,0,2.129l.908.906a1.521,1.521,0,0,0,2.144,0l10-10a1.529,1.529,0,0,0,0-2.152Z" transform="translate(0 -41.346)" fill="#12263f"/>
      </g>
    </g>
    <g id="right-arrow_1_2" data-name="right-arrow (1)" transform="translate(937.438 13850.44) rotate(90)">
      <g id="Grupo_57503-2" data-name="Grupo 57503" transform="translate(0 0)">
        <path id="Trazado_101707-2" data-name="Trazado 101707" d="M23.356,8.951,14.784.379a1.3,1.3,0,0,0-1.837,0l-.778.778a1.289,1.289,0,0,0-.379.919,1.315,1.315,0,0,0,.379.929l5,5.012H1.282A1.268,1.268,0,0,0,0,9.294v1.1a1.316,1.316,0,0,0,1.282,1.334H17.226l-5.057,5.04a1.286,1.286,0,0,0,0,1.824l.778.776a1.3,1.3,0,0,0,1.837,0l8.572-8.572a1.31,1.31,0,0,0,0-1.844Z" fill="#12263f"/>
      </g>
    </g>
    <g id="right-arrow_1_3" data-name="right-arrow (1)" transform="translate(937.438 13939.938) rotate(90)">
      <g id="Grupo_57503-3" data-name="Grupo 57503" transform="translate(0 0)">
        <path id="Trazado_101707-3" data-name="Trazado 101707" d="M23.356,8.951,14.784.379a1.3,1.3,0,0,0-1.837,0l-.778.778a1.289,1.289,0,0,0-.379.919,1.315,1.315,0,0,0,.379.929l5,5.012H1.282A1.268,1.268,0,0,0,0,9.294v1.1a1.316,1.316,0,0,0,1.282,1.334H17.226l-5.057,5.04a1.286,1.286,0,0,0,0,1.824l.778.776a1.3,1.3,0,0,0,1.837,0l8.572-8.572a1.31,1.31,0,0,0,0-1.844Z" fill="#12263f"/>
      </g>
    </g>
    <g id="right-arrow_1_4" data-name="right-arrow (1)" transform="translate(937.438 14030.281) rotate(90)">
      <g id="Grupo_57503-4" data-name="Grupo 57503" transform="translate(0 0)">
        <path id="Trazado_101707-4" data-name="Trazado 101707" d="M23.356,8.951,14.784.379a1.3,1.3,0,0,0-1.837,0l-.778.778a1.289,1.289,0,0,0-.379.919,1.315,1.315,0,0,0,.379.929l5,5.012H1.282A1.268,1.268,0,0,0,0,9.294v1.1a1.316,1.316,0,0,0,1.282,1.334H17.226l-5.057,5.04a1.286,1.286,0,0,0,0,1.824l.778.776a1.3,1.3,0,0,0,1.837,0l8.572-8.572a1.31,1.31,0,0,0,0-1.844Z" fill="#12263f"/>
      </g>
    </g>
    <g id="Rectángulo_5636" data-name="Rectángulo 5636" transform="translate(707 13714)" fill="#fff" stroke="#e8e8e8" stroke-width="3">
      <rect width="131" height="61" rx="10" stroke="none"/>
      <rect x="1.5" y="1.5" width="128" height="58" rx="8.5" fill="none"/>
    </g>
    <text id="Validar_resultados" data-name="Validar resultados" transform="translate(773 13748)" fill="#12263f" font-size="12" font-family="Roboto-Regular, Roboto"><tspan x="-48.155" y="0">Validar resultados</tspan></text>
    <text id="NO" transform="translate(772 13680)" fill="#fefefe" font-size="12" font-family="Roboto-Black, Roboto" font-weight="800"><tspan x="-8.355" y="0">NO</tspan></text>
    <path id="Trazado_102095" data-name="Trazado 102095" d="M15.35,9.367A23.012,23.012,0,0,1,7.675,0C6.153,3.8,3.147,6.81,0,9.367a14.5,14.5,0,0,0,6.831-2V17.9H8.519V7.377A13.824,13.824,0,0,0,15.35,9.367Z" transform="translate(936.084 13781.588) rotate(180)" fill="#12263f"/>
    <path id="Trazado_102096" data-name="Trazado 102096" d="M15.35,9.367A23.012,23.012,0,0,1,7.675,0C6.153,3.8,3.147,6.81,0,9.367a14.5,14.5,0,0,0,6.831-2V17.9H8.519V7.377A13.824,13.824,0,0,0,15.35,9.367Z" transform="translate(936.084 13725.862) rotate(180)" fill="#12263f"/>
    <path id="Trazado_102097" data-name="Trazado 102097" d="M15.35,9.367A23.012,23.012,0,0,1,7.675,0C6.153,3.8,3.147,6.81,0,9.367a14.5,14.5,0,0,0,6.831-2V17.9H8.519V7.377A13.824,13.824,0,0,0,15.35,9.367Z" transform="translate(817.991 13683.807) rotate(-90)" fill="#12263f"/>
  </g>
</svg>
