<svg xmlns="http://www.w3.org/2000/svg" width="410" height="290.092" viewBox="0 0 410 290.092">
  <g id="Grupo_57581" data-name="Grupo 57581" transform="translate(-495 -10331)">
    <text id="Actuar" transform="translate(507 10331)" fill="#12263f" font-size="20" font-family="Roboto-Black, Roboto" font-weight="800"><tspan x="-60.352" y="19">Actuar</tspan></text>
    <text id="Verificar" transform="translate(495 10590)" fill="#12263f" font-size="20" font-family="Roboto-Black, Roboto" font-weight="800"><tspan x="-78.047" y="19">Verificar</tspan></text>
    <text id="Planificar" transform="translate(810 10331)" fill="#12263f" font-size="20" font-family="Roboto-Black, Roboto" font-weight="800"><tspan x="0" y="19">Planificar</tspan></text>
    <text id="Hacer" transform="translate(810 10596)" fill="#12263f" font-size="20" font-family="Roboto-Black, Roboto" font-weight="800"><tspan x="0" y="19">Hacer</tspan></text>
    <g id="Grupo_57580" data-name="Grupo 57580" transform="translate(-2280.846 9075.826)">
      <g id="Grupo_57504" data-name="Grupo 57504" transform="translate(2842.179 1263.1)">
        <path id="Trazado_101709" data-name="Trazado 101709" d="M2983.715,1404.636H2842.179v-.7A140.833,140.833,0,0,1,2983.012,1263.1h.7Zm-140.128-1.406h138.723V1264.507C2905.985,1264.886,2843.965,1326.906,2843.587,1403.231Z" transform="translate(-2842.179 -1263.1)" fill="#afafaf" stroke="#afafaf" stroke-width="1"/>
      </g>
      <g id="Grupo_57505" data-name="Grupo 57505" transform="translate(3114.72 1357.636)">
        <path id="Trazado_101710" data-name="Trazado 101710" d="M3424.771,1468.027h0q-.261-.8-.531-1.6-.186-.547-.375-1.094l1.328-.462q.192.55.378,1.1.274.809.538,1.622Z" transform="translate(-3423.864 -1464.869)" fill="#afafaf" stroke="#afafaf" stroke-width="1"/>
      </g>
      <g id="Grupo_57506" data-name="Grupo 57506" transform="translate(3111.227 1348.525)">
        <path id="Trazado_101711" data-name="Trazado 101711" d="M3417.035,1447.466l-.286-.687q-.168-.4-.34-.8l1.293-.553q.172.4.341.807l.291.7v0Z" transform="translate(-3416.409 -1445.423)" fill="#afafaf" stroke="#afafaf" stroke-width="1"/>
      </g>
      <g id="Grupo_57507" data-name="Grupo 57507" transform="translate(3115.75 1360.742)">
        <path id="Trazado_101712" data-name="Trazado 101712" d="M3426.99,1474.93q-.141-.476-.287-.953c-.2-.667-.418-1.353-.641-2.05l1.337-.429h0v0c.22.686.438,1.381.65,2.078q.146.48.284.946l0,.007h0Z" transform="translate(-3426.061 -1471.497)" fill="#afafaf" stroke="#afafaf" stroke-width="1"/>
      </g>
      <g id="Grupo_57508" data-name="Grupo 57508" transform="translate(3112.461 1351.533)">
        <path id="Trazado_101713" data-name="Trazado 101713" d="M3419.792,1454.28h0v0q-.081-.21-.162-.419-.289-.747-.585-1.491v0l1.3-.522h0q.3.745.588,1.5c.056.146.112.292.168.438Z" transform="translate(-3419.042 -1451.842)" fill="#afafaf" stroke="#afafaf" stroke-width="1"/>
      </g>
      <g id="Grupo_57509" data-name="Grupo 57509" transform="translate(3113.625 1354.569)">
        <path id="Trazado_101714" data-name="Trazado 101714" d="M3422.372,1461.143q-.157-.443-.316-.885-.261-.723-.53-1.444l1.317-.492h0v0q.271.723.533,1.451.162.449.32.9Z" transform="translate(-3421.526 -1458.322)" fill="#afafaf" stroke="#afafaf" stroke-width="1"/>
      </g>
      <g id="Grupo_57510" data-name="Grupo 57510" transform="translate(3116.711 1363.886)">
        <path id="Trazado_101715" data-name="Trazado 101715" d="M3432.4,1498.214h0v-.005a140.176,140.176,0,0,0-4.288-19.6v0h0l1.348-.4a140.489,140.489,0,0,1,4.333,19.806Z" transform="translate(-3428.112 -1478.207)" fill="#afafaf" stroke="#afafaf" stroke-width="1"/>
      </g>
      <g id="Grupo_57511" data-name="Grupo 57511" transform="translate(3121.844 1390.949)">
        <path id="Trazado_101716" data-name="Trazado 101716" d="M3439.291,1538.76h0v0q-.064-.881-.143-1.762-.038-.449-.08-.9l1.4-.128c.027.3.055.6.081.907q.078.891.144,1.783Z" transform="translate(-3439.068 -1535.969)" fill="#afafaf" stroke="#afafaf" stroke-width="1"/>
      </g>
      <g id="Grupo_57512" data-name="Grupo 57512" transform="translate(3121.469 1387.312)">
        <path id="Trazado_101717" data-name="Trazado 101717" d="M3438.585,1531.325q-.108-1.108-.233-2.216c-.026-.239-.055-.483-.084-.733v-.005h0l1.4-.165q.044.367.085.736c.091.8.168,1.537.237,2.246v0h0Z" transform="translate(-3438.267 -1528.206)" fill="#afafaf" stroke="#afafaf" stroke-width="1"/>
      </g>
      <g id="Grupo_57513" data-name="Grupo 57513" transform="translate(3109.925 1345.546)">
        <path id="Trazado_101718" data-name="Trazado 101718" d="M3414.111,1440.722q-.164-.37-.331-.74l-.151-.334h0l1.279-.583.152.336q.168.375.335.751Z" transform="translate(-3413.629 -1439.064)" fill="#afafaf" stroke="#afafaf" stroke-width="1"/>
      </g>
      <g id="Grupo_57514" data-name="Grupo 57514" transform="translate(3090.261 1313.943)">
        <path id="Trazado_101719" data-name="Trazado 101719" d="M3372.09,1373.027l-.428-.512,1.08-.9.177.21c.085.1.172.2.257.308h0Z" transform="translate(-3371.662 -1371.615)" fill="#afafaf" stroke="#afafaf" stroke-width="1"/>
      </g>
      <g id="Grupo_57515" data-name="Grupo 57515" transform="translate(3087.825 1311.068)">
        <path id="Trazado_101720" data-name="Trazado 101720" d="M3367.186,1367.228c-.143-.164-.286-.327-.43-.49l-.293-.332,1.057-.927.285.323c.149.168.3.337.445.506Z" transform="translate(-3366.462 -1365.479)" fill="#afafaf" stroke="#afafaf" stroke-width="1"/>
      </g>
      <g id="Grupo_57516" data-name="Grupo 57516" transform="translate(3085.159 1308.089)">
        <path id="Trazado_101721" data-name="Trazado 101721" d="M3361.937,1361.336c-.176-.194-.355-.388-.534-.58l-.3-.323-.33-.354,1.029-.957.293.314.342.367q.272.293.542.589Z" transform="translate(-3360.771 -1359.12)" fill="#afafaf" stroke="#afafaf" stroke-width="1"/>
      </g>
      <g id="Grupo_57517" data-name="Grupo 57517" transform="translate(3092.544 1316.785)">
        <path id="Trazado_101722" data-name="Trazado 101722" d="M3376.748,1378.821l-.214-.269,1.1-.873.217.272Z" transform="translate(-3376.534 -1377.68)" fill="#afafaf" stroke="#afafaf" stroke-width="1"/>
      </g>
      <g id="Grupo_57518" data-name="Grupo 57518" transform="translate(3108.551 1342.593)">
        <path id="Trazado_101723" data-name="Trazado 101723" d="M3411.03,1434.067l-.333-.694,1.265-.612.015.03.321.67Z" transform="translate(-3410.697 -1432.762)" fill="#afafaf" stroke="#afafaf" stroke-width="1"/>
      </g>
      <g id="Grupo_57519" data-name="Grupo 57519" transform="translate(3107.105 1339.665)">
        <rect id="Rectángulo_5606" data-name="Rectángulo 5606" width="1.406" height="0.411" transform="matrix(0.891, -0.454, 0.454, 0.891, 0, 0.639)" fill="#afafaf" stroke="#afafaf" stroke-width="1"/>
      </g>
      <g id="Grupo_57520" data-name="Grupo 57520" transform="translate(3094.7 1319.656)">
        <path id="Trazado_101724" data-name="Trazado 101724" d="M3381.189,1384.682l-.054-.072.566-.416.588-.386.032.042Z" transform="translate(-3381.136 -1383.808)" fill="#afafaf" stroke="#afafaf" stroke-width="1"/>
      </g>
      <g id="Grupo_57521" data-name="Grupo 57521" transform="translate(3105.583 1336.761)">
        <path id="Trazado_101725" data-name="Trazado 101725" d="M3404.423,1421.089l-.062-.115,1.241-.66.056.1Z" transform="translate(-3404.362 -1420.314)" fill="#afafaf" stroke="#afafaf" stroke-width="1"/>
      </g>
      <g id="Grupo_57522" data-name="Grupo 57522" transform="translate(3121.011 1383.768)">
        <path id="Trazado_101726" data-name="Trazado 101726" d="M3437.71,1524.026c-.082-.682-.169-1.363-.26-2.035q-.078-.563-.16-1.148l1.391-.2h0c.054.378.107.762.16,1.147.1.707.183,1.39.264,2.067Z" transform="translate(-3437.29 -1520.643)" fill="#afafaf" stroke="#afafaf" stroke-width="1"/>
      </g>
      <g id="Grupo_57523" data-name="Grupo 57523" transform="translate(2982.309 1263.1)">
        <path id="Trazado_101727" data-name="Trazado 101727" d="M3141.259,1405.63V1263.1h.7a140.4,140.4,0,0,1,99.086,40.753h0l.5.5c.521.521,1.043,1.052,1.58,1.606q.423.437.842.877l.012.013h0l-1.018.969h0l-.012-.013c-.358-.376-.707-.738-1.051-1.092-.283-.291-.566-.58-.852-.869Zm1.406-141.123v137.729l97.389-97.391A138.1,138.1,0,0,0,3142.665,1264.507Z" transform="translate(-3141.259 -1263.1)" fill="#afafaf" stroke="#afafaf" stroke-width="1"/>
      </g>
      <g id="Grupo_57524" data-name="Grupo 57524" transform="translate(2842.179 1403.231)">
        <path id="Trazado_101728" data-name="Trazado 101728" d="M2983.715,1703.717h-.7a140.834,140.834,0,0,1-140.833-140.833v-.7h141.536Zm-140.128-140.13c.378,76.324,62.4,138.344,138.723,138.723V1563.587Z" transform="translate(-2842.179 -1562.181)" fill="#afafaf" stroke="#afafaf" stroke-width="1"/>
      </g>
      <g id="Grupo_57525" data-name="Grupo 57525" transform="translate(3094.707 1487.332)">
        <path id="Trazado_101729" data-name="Trazado 101729" d="M3382.3,1742.559l-1.146-.814.05-.066,1.125.844Z" transform="translate(-3381.149 -1741.679)" fill="#afafaf" stroke="#afafaf" stroke-width="1"/>
      </g>
      <g id="Grupo_57526" data-name="Grupo 57526" transform="translate(3121.469 1417.435)">
        <path id="Trazado_101730" data-name="Trazado 101730" d="M3439.662,1595.617l-1.4-.165h0v-.006c.03-.255.058-.5.086-.747q.125-1.1.231-2.2l1.4.135c-.067.7-.144,1.425-.232,2.205Q3439.709,1595.228,3439.662,1595.617Z" transform="translate(-3438.267 -1592.498)" fill="#afafaf" stroke="#afafaf" stroke-width="1"/>
      </g>
      <g id="Grupo_57527" data-name="Grupo 57527" transform="translate(3121.011 1420.715)">
        <path id="Trazado_101731" data-name="Trazado 101731" d="M3438.682,1602.877l-1.391-.2c.023-.161.045-.322.068-.482.125-.893.242-1.8.352-2.7l1.4.168c-.106.888-.227,1.811-.358,2.749-.021.147-.041.294-.062.44l0,.022Z" transform="translate(-3437.291 -1599.498)" fill="#afafaf" stroke="#afafaf" stroke-width="1"/>
      </g>
      <g id="Grupo_57528" data-name="Grupo 57528" transform="translate(3092.549 1489.941)">
        <path id="Trazado_101732" data-name="Trazado 101732" d="M3377.647,1748.382l-1.1-.872.208-.262,1.1.869Z" transform="translate(-3376.545 -1747.248)" fill="#afafaf" stroke="#afafaf" stroke-width="1"/>
      </g>
      <g id="Grupo_57529" data-name="Grupo 57529" transform="translate(3121.844 1414.125)">
        <path id="Trazado_101733" data-name="Trazado 101733" d="M3440.468,1588.226l-1.4-.129h0q.041-.449.081-.9.077-.879.142-1.759v0l1.4.1q-.064.888-.143,1.771Q3440.511,1587.766,3440.468,1588.226Z" transform="translate(-3439.068 -1585.434)" fill="#afafaf" stroke="#afafaf" stroke-width="1"/>
      </g>
      <g id="Grupo_57530" data-name="Grupo 57530" transform="translate(3105.59 1470.331)">
        <path id="Trazado_101734" data-name="Trazado 101734" d="M3405.607,1706.175l-1.229-.683.054-.1,1.229.683Z" transform="translate(-3404.378 -1705.394)" fill="#afafaf" stroke="#afafaf" stroke-width="1"/>
      </g>
      <g id="Grupo_57531" data-name="Grupo 57531" transform="translate(2982.309 1402.237)">
        <path id="Trazado_101735" data-name="Trazado 101735" d="M3141.962,1702.59h-.7V1560.06l100.784,100.783-.5.5A139.912,139.912,0,0,1,3141.962,1702.59Zm.7-139.136v137.729a138.484,138.484,0,0,0,97.389-40.34Z" transform="translate(-3141.259 -1560.06)" fill="#afafaf" stroke="#afafaf" stroke-width="1"/>
      </g>
      <g id="Grupo_57532" data-name="Grupo 57532" transform="translate(3087.835 1495.051)">
        <path id="Trazado_101736" data-name="Trazado 101736" d="M3367.54,1759.889l-1.056-.928h0l.274-.311c.146-.165.292-.329.436-.5h0l1.063.92q-.231.266-.466.53Z" transform="translate(-3366.484 -1758.154)" fill="#afafaf" stroke="#afafaf" stroke-width="1"/>
      </g>
      <g id="Grupo_57533" data-name="Grupo 57533" transform="translate(3090.268 1492.513)">
        <path id="Trazado_101737" data-name="Trazado 101737" d="M3372.757,1754.138l-1.082-.9.008-.01.412-.493,1.084.894Z" transform="translate(-3371.676 -1752.737)" fill="#afafaf" stroke="#afafaf" stroke-width="1"/>
      </g>
      <g id="Grupo_57534" data-name="Grupo 57534" transform="translate(3116.711 1423.976)">
        <path id="Trazado_101738" data-name="Trazado 101738" d="M3429.46,1626.462l-1.348-.4a140.133,140.133,0,0,0,4.29-19.606l1.391.2v0A140.561,140.561,0,0,1,3429.46,1626.462Z" transform="translate(-3428.112 -1606.457)" fill="#afafaf" stroke="#afafaf" stroke-width="1"/>
      </g>
      <g id="Grupo_57535" data-name="Grupo 57535" transform="translate(3107.108 1467.201)">
        <path id="Trazado_101739" data-name="Trazado 101739" d="M3408.867,1699.711l-1.25-.642.181-.356,1.253.638Z" transform="translate(-3407.617 -1698.713)" fill="#afafaf" stroke="#afafaf" stroke-width="1"/>
      </g>
      <g id="Grupo_57536" data-name="Grupo 57536" transform="translate(3114.721 1447.074)">
        <path id="Trazado_101740" data-name="Trazado 101740" d="M3425.195,1658.909l-1.328-.462q.311-.894.609-1.792.149-.449.295-.9h0l1.337.434q-.149.458-.3.916Q3425.507,1658.01,3425.195,1658.909Z" transform="translate(-3423.867 -1655.757)" fill="#afafaf" stroke="#afafaf" stroke-width="1"/>
      </g>
      <g id="Grupo_57537" data-name="Grupo 57537" transform="translate(3113.626 1450.481)">
        <path id="Trazado_101741" data-name="Trazado 101741" d="M3422.845,1665.842l-1.317-.492q.268-.717.528-1.438.159-.441.316-.883h0l1.325.469q-.157.447-.318.894Q3423.115,1665.119,3422.845,1665.842Z" transform="translate(-3421.528 -1663.028)" fill="#afafaf" stroke="#afafaf" stroke-width="1"/>
      </g>
      <g id="Grupo_57538" data-name="Grupo 57538" transform="translate(3109.926 1460.667)">
        <path id="Trazado_101742" data-name="Trazado 101742" d="M3414.912,1686.418l-1.279-.582h0c.05-.11.1-.221.15-.332l.3-.677.024-.054v0h0l1.284.572q-.166.372-.333.744C3415.013,1686.195,3414.962,1686.307,3414.912,1686.418Z" transform="translate(-3413.632 -1684.768)" fill="#afafaf" stroke="#afafaf" stroke-width="1"/>
      </g>
      <g id="Grupo_57539" data-name="Grupo 57539" transform="translate(3112.461 1453.898)">
        <path id="Trazado_101743" data-name="Trazado 101743" d="M3420.348,1672.755l-1.305-.523q.162-.4.319-.8.217-.552.429-1.106l1.313.5q-.213.557-.431,1.113C3420.565,1672.211,3420.458,1672.483,3420.348,1672.755Z" transform="translate(-3419.043 -1670.321)" fill="#afafaf" stroke="#afafaf" stroke-width="1"/>
      </g>
      <g id="Grupo_57540" data-name="Grupo 57540" transform="translate(3108.552 1463.97)">
        <path id="Trazado_101744" data-name="Trazado 101744" d="M3411.966,1693.119l-1.266-.612.33-.688,1.267.607Z" transform="translate(-3410.7 -1691.818)" fill="#afafaf" stroke="#afafaf" stroke-width="1"/>
      </g>
      <g id="Grupo_57541" data-name="Grupo 57541" transform="translate(3115.75 1443.691)">
        <path id="Trazado_101745" data-name="Trazado 101745" d="M3427.4,1651.968l-1.337-.431c.195-.61.387-1.22.573-1.826q.178-.581.353-1.17v-.006h0l1.348.4h0l0,.007q-.174.586-.356,1.181C3427.788,1650.75,3427.594,1651.366,3427.4,1651.968Z" transform="translate(-3426.063 -1648.536)" fill="#afafaf" stroke="#afafaf" stroke-width="1"/>
      </g>
      <g id="Grupo_57542" data-name="Grupo 57542" transform="translate(3111.229 1457.301)">
        <path id="Trazado_101746" data-name="Trazado 101746" d="M3417.7,1679.621l-1.292-.552q.134-.313.266-.627.18-.428.357-.857l1.3.537q-.179.435-.362.868Q3417.84,1679.306,3417.7,1679.621Z" transform="translate(-3416.412 -1677.584)" fill="#afafaf" stroke="#afafaf" stroke-width="1"/>
      </g>
      <g id="Grupo_57543" data-name="Grupo 57543" transform="translate(3108.883 1343.292)" style="isolation: isolate">
        <path id="Trazado_101747" data-name="Trazado 101747" d="M3412.448,1437.092q-.222-.486-.447-.97-.294-.63-.594-1.259h0l1.268-.605q.3.636.6,1.275.228.487.45.977h0Z" transform="translate(-3411.406 -1434.255)" fill="#afafaf" stroke="#afafaf" stroke-width="1"/>
      </g>
      <g id="Grupo_57544" data-name="Grupo 57544" transform="translate(3111.853 1350.03)" style="isolation: isolate">
        <path id="Trazado_101748" data-name="Trazado 101748" d="M3418.353,1450.661q-.24-.6-.484-1.19l-.12-.29,0-.008h0l1.3-.537.13.314q.245.592.483,1.186v0h0Z" transform="translate(-3417.745 -1448.635)" fill="#afafaf" stroke="#afafaf" stroke-width="1"/>
      </g>
      <g id="Grupo_57545" data-name="Grupo 57545" transform="translate(3108.882 1461.734)" style="isolation: isolate">
        <path id="Trazado_101749" data-name="Trazado 101749" d="M3412.671,1689.888l-1.268-.605h0q.3-.631.6-1.263c.15-.323.3-.646.448-.97v0h0l1.279.583h0q-.224.494-.453.985Q3412.975,1689.253,3412.671,1689.888Z" transform="translate(-3411.403 -1687.045)" fill="#afafaf" stroke="#afafaf" stroke-width="1"/>
      </g>
      <g id="Grupo_57546" data-name="Grupo 57546" transform="translate(3110.406 1458.785)" style="isolation: isolate">
        <path id="Trazado_101750" data-name="Trazado 101750" d="M3415.939,1683.2l-1.284-.571q.191-.431.381-.861.223-.511.443-1.023l1.292.553q-.221.516-.447,1.03Q3416.133,1682.77,3415.939,1683.2Z" transform="translate(-3414.655 -1680.75)" fill="#afafaf" stroke="#afafaf" stroke-width="1"/>
      </g>
      <g id="Grupo_57547" data-name="Grupo 57547" transform="translate(3113.211 1353.467)" style="isolation: isolate">
        <path id="Trazado_101751" data-name="Trazado 101751" d="M3421.057,1457.565h0q-.148-.395-.3-.788l-.1-.252-.019-.049,1.312-.5c.04.1.079.2.118.307q.152.395.3.791v0h0Z" transform="translate(-3420.642 -1455.971)" fill="#afafaf" stroke="#afafaf" stroke-width="1"/>
      </g>
      <g id="Grupo_57548" data-name="Grupo 57548" transform="translate(3110.407 1346.631)" style="isolation: isolate">
        <path id="Trazado_101752" data-name="Trazado 101752" d="M3415.479,1443.828h0c-.105-.249-.213-.5-.32-.742q-.248-.566-.5-1.13v0h0l1.284-.573h0q.257.573.507,1.149c.107.245.214.492.319.738l0,.006h0Z" transform="translate(-3414.659 -1441.381)" fill="#afafaf" stroke="#afafaf" stroke-width="1"/>
      </g>
      <g id="Grupo_57549" data-name="Grupo 57549" transform="translate(3086.323 1495.859)" style="isolation: isolate">
        <path id="Trazado_101753" data-name="Trazado 101753" d="M3364.3,1762.526l-1.041-.944h0l.015-.017.188-.207c.407-.452.807-.907,1.207-1.363l.1-.118,1.057.927h0c-.434.5-.869.992-1.31,1.482l-.213.235,0,0Z" transform="translate(-3363.257 -1759.877)" fill="#afafaf" stroke="#afafaf" stroke-width="1"/>
      </g>
      <g id="Grupo_57550" data-name="Grupo 57550" transform="translate(3107.289 1464.658)" style="isolation: isolate">
        <path id="Trazado_101754" data-name="Trazado 101754" d="M3409.257,1696.467l-1.252-.638h0v0q.319-.627.631-1.255t.63-1.285l1.266.613q-.315.649-.636,1.3t-.639,1.27v0Z" transform="translate(-3408.004 -1693.286)" fill="#afafaf" stroke="#afafaf" stroke-width="1"/>
      </g>
      <g id="Grupo_57551" data-name="Grupo 57551" transform="translate(3086.325 1309.36)" style="isolation: isolate">
        <path id="Trazado_101755" data-name="Trazado 101755" d="M3364.76,1364.468l0,0-.156-.177c-.366-.417-.733-.834-1.105-1.249-.078-.088-.157-.175-.236-.262l1.04-.945h0l.006.005.213.236c.425.472.845.951,1.265,1.428l.034.039Z" transform="translate(-3363.26 -1361.832)" fill="#afafaf" stroke="#afafaf" stroke-width="1"/>
      </g>
      <g id="Grupo_57552" data-name="Grupo 57552" transform="translate(3105.641 1467.557)" style="isolation: isolate">
        <path id="Trazado_101756" data-name="Trazado 101756" d="M3405.721,1702.924l-1.236-.67h0l0-.007q.23-.424.458-.851c.333-.626.67-1.27,1.006-1.923l1.25.642c-.328.64-.667,1.288-1.011,1.934Q3405.954,1702.493,3405.721,1702.924Z" transform="translate(-3404.485 -1699.473)" fill="#afafaf" stroke="#afafaf" stroke-width="1"/>
      </g>
      <g id="Grupo_57553" data-name="Grupo 57553" transform="translate(3088.549 1311.897)" style="isolation: isolate">
        <path id="Trazado_101757" data-name="Trazado 101757" d="M3369.719,1370.194h0l0,0q-.431-.518-.865-1.034-.42-.5-.846-.99l1.063-.919h0l0,0q.428.494.848.993.441.522.878,1.049l0,0Z" transform="translate(-3368.006 -1367.248)" fill="#afafaf" stroke="#afafaf" stroke-width="1"/>
      </g>
      <g id="Grupo_57554" data-name="Grupo 57554" transform="translate(3084.012 1306.845)" style="isolation: isolate">
        <path id="Trazado_101758" data-name="Trazado 101758" d="M3359.47,1358.666l-.371-.4c-.257-.279-.515-.557-.776-.832l1.019-.97c.266.28.528.563.79.846l.369.4Z" transform="translate(-3358.323 -1356.465)" fill="#afafaf" stroke="#afafaf" stroke-width="1"/>
      </g>
      <g id="Grupo_57555" data-name="Grupo 57555" transform="translate(3105.643 1336.864)" style="isolation: isolate">
        <path id="Trazado_101759" data-name="Trazado 101759" d="M3405.954,1423.977c-.25-.485-.492-.952-.732-1.408s-.482-.907-.729-1.364h0l1.236-.67c.246.452.49.909.738,1.379s.5.953.738,1.417v0h0Z" transform="translate(-3404.491 -1420.535)" fill="#afafaf" stroke="#afafaf" stroke-width="1"/>
      </g>
      <g id="Grupo_57556" data-name="Grupo 57556" transform="translate(3107.292 1340.031)" style="isolation: isolate">
        <path id="Trazado_101760" data-name="Trazado 101760" d="M3409.269,1430.469q-.462-.951-.937-1.9c-.107-.213-.215-.426-.323-.639h0l1.253-.638.327.647q.48.955.945,1.915Z" transform="translate(-3408.009 -1427.295)" fill="#afafaf" stroke="#afafaf" stroke-width="1"/>
      </g>
      <g id="Grupo_57557" data-name="Grupo 57557" transform="translate(3094.758 1319.694)" style="isolation: isolate">
        <path id="Trazado_101761" data-name="Trazado 101761" d="M3392.086,1401.621a140.083,140.083,0,0,0-10.828-16.89h0l1.126-.842a140.523,140.523,0,0,1,10.937,17.061h0Z" transform="translate(-3381.258 -1383.888)" fill="#afafaf" stroke="#afafaf" stroke-width="1"/>
      </g>
      <g id="Grupo_57558" data-name="Grupo 57558" transform="translate(3092.758 1317.058)" style="isolation: isolate">
        <path id="Trazado_101762" data-name="Trazado 101762" d="M3378.937,1381.668h0l0,0q-.386-.516-.757-1-.587-.77-1.186-1.532l1.106-.868h0v0c.394.5.79,1.011,1.194,1.543q.389.508.77,1.016Z" transform="translate(-3376.99 -1378.262)" fill="#afafaf" stroke="#afafaf" stroke-width="1"/>
      </g>
      <g id="Grupo_57559" data-name="Grupo 57559" transform="translate(3114.47 1356.92)" style="isolation: isolate">
        <path id="Trazado_101763" data-name="Trazado 101763" d="M3423.581,1464.517l-.25-.709,1.325-.469.017.046c.079.224.158.447.235.672h0Z" transform="translate(-3423.331 -1463.34)" fill="#afafaf" stroke="#afafaf" stroke-width="1"/>
      </g>
      <g id="Grupo_57560" data-name="Grupo 57560" transform="translate(3116.678 1443.581)" style="isolation: isolate">
        <path id="Trazado_101764" data-name="Trazado 101764" d="M3429.39,1648.813l-1.346-.4.032-.108,1.348.4Z" transform="translate(-3428.044 -1648.302)" fill="#afafaf" stroke="#afafaf" stroke-width="1"/>
      </g>
      <g id="Grupo_57561" data-name="Grupo 57561" transform="translate(3090.69 1314.461)" style="isolation: isolate">
        <path id="Trazado_101765" data-name="Trazado 101765" d="M3374.431,1375.917q-.4-.5-.765-.962-.541-.675-1.09-1.341l1.085-.893h0c.387.47.787.963,1.21,1.492q.328.411.661.833Z" transform="translate(-3372.576 -1372.72)" fill="#afafaf" stroke="#afafaf" stroke-width="1"/>
      </g>
      <g id="Grupo_57562" data-name="Grupo 57562" transform="translate(3094.756 1470.435)" style="isolation: isolate">
        <path id="Trazado_101766" data-name="Trazado 101766" d="M3382.38,1723.356l-1.125-.842h0a139.934,139.934,0,0,0,10.828-16.893l0,0h0l1.235.671h0l0,.007A140.513,140.513,0,0,1,3382.38,1723.356Z" transform="translate(-3381.255 -1705.616)" fill="#afafaf" stroke="#afafaf" stroke-width="1"/>
      </g>
      <g id="Grupo_57563" data-name="Grupo 57563" transform="translate(3115.627 1360.36)" style="isolation: isolate">
        <path id="Trazado_101767" data-name="Trazado 101767" d="M3425.922,1471.494l-.122-.377,1.336-.436.124.382Z" transform="translate(-3425.8 -1470.682)" fill="#afafaf" stroke="#afafaf" stroke-width="1"/>
      </g>
      <g id="Grupo_57564" data-name="Grupo 57564" transform="translate(3121 1423.901)" style="isolation: isolate">
        <path id="Trazado_101768" data-name="Trazado 101768" d="M3438.658,1606.578l-1.39-.209.01-.071,1.394.186Z" transform="translate(-3437.268 -1606.298)" fill="#afafaf" stroke="#afafaf" stroke-width="1"/>
      </g>
      <g id="Grupo_57565" data-name="Grupo 57565" transform="translate(3121.431 1420.39)" style="isolation: isolate">
        <path id="Trazado_101769" data-name="Trazado 101769" d="M3439.582,1599.3l-1.4-.17.038-.325,1.4.164Z" transform="translate(-3438.187 -1598.804)" fill="#afafaf" stroke="#afafaf" stroke-width="1"/>
      </g>
      <g id="Grupo_57566" data-name="Grupo 57566" transform="translate(3121.787 1416.787)" style="isolation: isolate">
        <path id="Trazado_101770" data-name="Trazado 101770" d="M3440.345,1591.9l-1.4-.133.057-.649,1.4.13Z" transform="translate(-3438.947 -1591.115)" fill="#afafaf" stroke="#afafaf" stroke-width="1"/>
      </g>
      <g id="Grupo_57567" data-name="Grupo 57567" transform="translate(3115.626 1446.692)" style="isolation: isolate">
        <path id="Trazado_101771" data-name="Trazado 101771" d="M3427.134,1655.758l-1.337-.435.125-.382,1.338.43Z" transform="translate(-3425.797 -1654.941)" fill="#afafaf" stroke="#afafaf" stroke-width="1"/>
      </g>
      <g id="Grupo_57568" data-name="Grupo 57568" transform="translate(3114.469 1449.765)" style="isolation: isolate">
        <path id="Trazado_101772" data-name="Trazado 101772" d="M3424.653,1662.685l-1.325-.47q.127-.357.253-.716l1.328.462Q3424.782,1662.324,3424.653,1662.685Z" transform="translate(-3423.328 -1661.499)" fill="#afafaf" stroke="#afafaf" stroke-width="1"/>
      </g>
      <g id="Grupo_57569" data-name="Grupo 57569" transform="translate(3121.431 1386.982)" style="isolation: isolate">
        <path id="Trazado_101773" data-name="Trazado 101773" d="M3438.224,1528l-.038-.324,1.4-.17.038.33Z" transform="translate(-3438.187 -1527.502)" fill="#afafaf" stroke="#afafaf" stroke-width="1"/>
      </g>
      <g id="Grupo_57570" data-name="Grupo 57570" transform="translate(3121 1383.692)" style="isolation: isolate">
        <path id="Trazado_101774" data-name="Trazado 101774" d="M3437.278,1520.756l-.011-.077,1.392-.2.006.044Z" transform="translate(-3437.267 -1520.48)" fill="#afafaf" stroke="#afafaf" stroke-width="1"/>
      </g>
      <g id="Grupo_57571" data-name="Grupo 57571" transform="translate(3090.688 1490.204)" style="isolation: isolate">
        <path id="Trazado_101775" data-name="Trazado 101775" d="M3373.657,1751.012l-1.085-.894h0v0q.631-.766,1.251-1.542.294-.368.605-.763l0,0h0l1.1.87h0l0,0q-.271.344-.542.683c-.47.589-.91,1.131-1.333,1.645h0Z" transform="translate(-3372.572 -1747.808)" fill="#afafaf" stroke="#afafaf" stroke-width="1"/>
      </g>
      <g id="Grupo_57572" data-name="Grupo 57572" transform="translate(3116.678 1363.775)" style="isolation: isolate">
        <path id="Trazado_101776" data-name="Trazado 101776" d="M3428.076,1478.483l-.034-.113,1.348-.4.032.108Z" transform="translate(-3428.042 -1477.972)" fill="#afafaf" stroke="#afafaf" stroke-width="1"/>
      </g>
      <g id="Grupo_57573" data-name="Grupo 57573" transform="translate(3088.547 1493.015)" style="isolation: isolate">
        <path id="Trazado_101777" data-name="Trazado 101777" d="M3369.065,1756.764l-1.063-.919q.428-.5.85-1,.439-.518.872-1.04l1.081.9h0l0,0q-.439.53-.884,1.056Q3369.494,1756.266,3369.065,1756.764Z" transform="translate(-3368.002 -1753.808)" fill="#afafaf" stroke="#afafaf" stroke-width="1"/>
      </g>
      <g id="Grupo_57574" data-name="Grupo 57574" transform="translate(3111.852 1455.808)" style="isolation: isolate">
        <path id="Trazado_101778" data-name="Trazado 101778" d="M3419.041,1676.429l-1.3-.538.288-.7q.163-.4.323-.8l1.3.523h0c-.105.266-.214.531-.323.8l-.291.707v0Z" transform="translate(-3417.742 -1674.398)" fill="#afafaf" stroke="#afafaf" stroke-width="1"/>
      </g>
      <g id="Grupo_57575" data-name="Grupo 57575" transform="translate(3113.209 1452.801)" style="isolation: isolate">
        <path id="Trazado_101779" data-name="Trazado 101779" d="M3421.951,1669.58l-1.312-.5,0-.007.015-.037c.02-.052.04-.1.06-.157q.171-.446.34-.9l1.316.493h0q-.166.444-.337.886C3422.008,1669.434,3421.979,1669.507,3421.951,1669.58Z" transform="translate(-3420.639 -1667.98)" fill="#afafaf" stroke="#afafaf" stroke-width="1"/>
      </g>
      <g id="Grupo_57576" data-name="Grupo 57576" transform="translate(3121.787 1390.297)" style="isolation: isolate">
        <path id="Trazado_101780" data-name="Trazado 101780" d="M3439,1535.358l-.057-.648,1.4-.133.058.651Z" transform="translate(-3438.947 -1534.576)" fill="#afafaf" stroke="#afafaf" stroke-width="1"/>
      </g>
      <g id="Grupo_57577" data-name="Grupo 57577" transform="translate(3092.757 1487.398)" style="isolation: isolate">
        <path id="Trazado_101781" data-name="Trazado 101781" d="M3378.093,1745.232l-1.105-.868q.311-.4.62-.8c.438-.567.882-1.151,1.327-1.744l0,0h0l1.125.843h0l0,0c-.438.585-.888,1.176-1.343,1.764q-.313.405-.621.8l0,0Z" transform="translate(-3376.987 -1741.82)" fill="#afafaf" stroke="#afafaf" stroke-width="1"/>
      </g>
      <g id="Grupo_57578" data-name="Grupo 57578" transform="translate(2981.315 1303.852)" style="isolation: isolate">
        <path id="Trazado_101782" data-name="Trazado 101782" d="M3280.965,1450.861H3139.138l100.783-100.784.5.5c.793.793,1.59,1.61,2.434,2.5.266.28.528.563.791.847l.661.712c.3.318.593.636.884.957.5.551.991,1.11,1.482,1.669l.323.366c.148.167.3.334.441.5q.877,1.014,1.731,2.047l.432.517c.6.735,1.235,1.517,1.874,2.327l.214.269c.665.847,1.326,1.71,1.966,2.563l.057.077a141.388,141.388,0,0,1,10.934,17.057l.059.108c.485.894.968,1.81,1.477,2.8l.188.367q.649,1.273,1.272,2.562l.335.7q.536,1.122,1.052,2.253.248.543.488,1.087.42.942.828,1.893.321.752.632,1.505t.614,1.5q.386.966.757,1.935c.141.366.281.733.419,1.1q.438,1.174.854,2.352l.016.046c.079.224.158.448.236.672q.471,1.357.915,2.723l.124.381c.335,1.045.651,2.065.938,3.033l.032.108a141.567,141.567,0,0,1,4.333,19.808l.011.077c.152,1.051.294,2.132.425,3.215l.038.329q.177,1.49.323,2.983l.057.653c.082.9.159,1.793.225,2.69q.024.334.043.669l.031.489c.048.741.1,1.483.132,2.225.02.4.034.8.047,1.208l.038,1.006c.016.4.032.809.042,1.214.029,1.19.043,2.35.043,3.445v.7Zm-138.434-1.406H3280.26c0-.9-.019-1.8-.041-2.748-.01-.4-.025-.795-.041-1.192l-.038-1.013c-.013-.4-.027-.794-.046-1.189-.036-.735-.083-1.468-.131-2.2l-.031-.495c-.014-.217-.026-.434-.042-.65-.065-.889-.141-1.776-.223-2.664l-.057-.647q-.144-1.477-.318-2.953l-.038-.325c-.129-1.073-.271-2.144-.42-3.184l.685-.177-.7.1a140.16,140.16,0,0,0-4.29-19.608l-.033-.11c-.284-.958-.6-1.968-.928-3l-.122-.376q-.439-1.353-.907-2.7-.115-.333-.233-.662l-.016-.046q-.412-1.168-.846-2.329-.2-.545-.414-1.089-.369-.961-.75-1.916-.3-.745-.607-1.487t-.626-1.49q-.4-.94-.82-1.874c-.159-.36-.319-.718-.483-1.075q-.51-1.12-1.041-2.231l-.333-.694q-.617-1.273-1.259-2.534l-.187-.366c-.5-.978-.981-1.884-1.461-2.769l-.061-.114a140.076,140.076,0,0,0-10.825-16.885l-.057-.077c-.629-.84-1.284-1.695-1.943-2.533l-.211-.265q-.918-1.165-1.857-2.306l-.427-.511q-.85-1.022-1.714-2.027-.213-.245-.43-.489l-.327-.371c-.486-.553-.972-1.107-1.467-1.652-.288-.316-.58-.629-.872-.942l-.666-.717c-.257-.279-.514-.557-.776-.832-.66-.693-1.291-1.343-1.914-1.974Z" transform="translate(-3139.138 -1350.077)" fill="#afafaf" stroke="#afafaf" stroke-width="1"/>
      </g>
      <g id="Grupo_57579" data-name="Grupo 57579" transform="translate(2981.315 1403.231)" style="isolation: isolate">
        <path id="Trazado_101783" data-name="Trazado 101783" d="M3239.942,1662.956l-.518-.488-100.287-100.287h142.53v.75c0,1.087-.014,2.246-.043,3.436-.01.406-.026.811-.042,1.216l-.038,1c-.013.4-.027.807-.047,1.209-.037.743-.084,1.485-.133,2.228l-.03.49q-.019.332-.043.662c-.065.9-.143,1.794-.224,2.69l-.058.652q-.145,1.5-.323,2.985l-.038.33c-.129,1.072-.272,2.151-.424,3.209l-.013.087a141.311,141.311,0,0,1-4.331,19.8l-.034.114c-.294.992-.609,2.012-.937,3.029l-.125.387q-.442,1.361-.913,2.717-.127.364-.255.725-.416,1.174-.851,2.343-.209.556-.422,1.107-.369.966-.755,1.93-.3.757-.615,1.507t-.629,1.5q-.409.955-.832,1.9-.24.539-.484,1.078-.518,1.136-1.055,2.26l-.332.693q-.626,1.292-1.277,2.569l-.183.36c-.5.965-.995,1.91-1.482,2.808l-.057.105a141.492,141.492,0,0,1-10.937,17.062l-.028.037q-.991,1.321-1.991,2.6l-.211.265c-.634.8-1.266,1.589-1.878,2.332l-.425.507c-.573.689-1.152,1.377-1.74,2.056-.153.178-.31.354-.465.53l-.253.286c-.505.576-1.011,1.152-1.527,1.72-.29.32-.586.638-.882.954l-.624.672c-.275.3-.55.594-.829.888-.82.86-1.631,1.693-2.414,2.475Zm-97.411-99.369,97.389,97.388c.626-.632,1.267-1.294,1.914-1.972.274-.288.544-.581.815-.873l.628-.677c.291-.312.583-.624.869-.939.51-.563,1.011-1.133,1.512-1.7l.257-.291c.152-.171.305-.344.455-.517q.87-1.008,1.721-2.036l.419-.5q.942-1.144,1.86-2.309l.209-.263c.661-.843,1.318-1.7,1.949-2.543l.613.355-.563-.421a140.044,140.044,0,0,0,10.832-16.9l.056-.1c.479-.883.972-1.818,1.464-2.774l.181-.356q.646-1.265,1.264-2.543l.33-.688q.531-1.112,1.044-2.236.242-.531.479-1.066.418-.938.824-1.883.316-.74.622-1.483t.61-1.493q.381-.952.747-1.91c.141-.365.28-.73.417-1.1q.432-1.155.843-2.32c.085-.239.169-.477.252-.717q.465-1.341.9-2.69l.125-.383c.323-1.007.635-2.017.927-3l.033-.11a140.08,140.08,0,0,0,4.289-19.606l.01-.074c.152-1.055.293-2.125.421-3.186l.038-.325q.173-1.477.318-2.955l.058-.648c.081-.886.158-1.773.222-2.661.015-.215.028-.43.042-.646l.031-.5c.048-.735.1-1.47.131-2.205.019-.4.033-.792.046-1.189l.038-1.012c.015-.4.032-.8.041-1.195.023-.94.036-1.862.041-2.747Z" transform="translate(-3139.138 -1562.181)" fill="#afafaf" stroke="#afafaf" stroke-width="1"/>
      </g>
    </g>
    <g id="puntero-del-mouse-negro" transform="translate(812.238 10390.516) rotate(177)">
      <g id="Trazado_101708" data-name="Trazado 101708" transform="translate(0)" fill="#afafaf">
        <path d="M 9.718818664550781 22.90667152404785 C 9.718780517578125 22.90667152404785 9.71878719329834 22.90667152404785 9.718749046325684 22.90667152404785 C 9.359918594360352 22.90664100646973 8.699058532714844 22.74513244628906 8.304648399353027 21.66363143920898 L 0.8952386379241943 1.287171483039856 C 0.5903886556625366 0.4506815373897552 0.7858686447143555 -0.09584847837686539 1.003588676452637 -0.406918466091156 C 1.26758861541748 -0.7841184735298157 1.700868606567383 -1.00044846534729 2.192338705062866 -1.00044846534729 C 2.48473858833313 -1.00044846534729 2.798598766326904 -0.9251784682273865 3.125208616256714 -0.7767184972763062 L 21.46927833557129 7.504791736602783 C 22.55715942382812 7.996381759643555 22.63598823547363 8.755701065063477 22.61938858032227 9.059341430664062 C 22.60280799865723 9.362941741943359 22.44174957275391 10.10903167724609 21.30734825134277 10.47899150848389 L 13.96701908111572 12.87864112854004 L 13.46391868591309 13.04311180114746 L 13.04500865936279 12.71956157684326 L 12.29336166381836 12.13900279998779 L 12.94957828521729 13.19499111175537 L 13.1752986907959 13.55821132659912 L 13.06858825683594 13.97233200073242 L 11.12203884124756 21.52632141113281 C 10.80112743377686 22.77206993103027 10.03390121459961 22.90667152404785 9.718818664550781 22.90667152404785 Z" stroke="none"/>
        <path d="M 2.192340850830078 -0.00045013427734375 C 1.779378890991211 -0.00045013427734375 1.619295120239258 0.3534641265869141 1.835029602050781 0.9454421997070312 L 9.244118690490723 21.32101058959961 C 9.535079956054688 22.11883354187012 9.941848754882812 22.09905052185059 10.15366840362549 21.27678108215332 L 12.10021877288818 13.72280120849609 L 9.331988334655762 9.26815128326416 C 8.883331298828125 8.546565055847168 9.064881324768066 8.380126953125 9.737009048461914 8.900961875915527 L 13.65628910064697 11.92814159393311 L 20.99728775024414 9.528271675109863 C 21.80557823181152 9.26466178894043 21.83176803588867 8.765951156616211 21.05780792236328 8.416211128234863 L 2.711418151855469 0.1336517333984375 C 2.511161804199219 0.04262733459472656 2.336341857910156 -0.00045013427734375 2.192340850830078 -0.00045013427734375 M 2.192338943481445 -2.000448226928711 C 2.627826690673828 -2.000448226928711 3.080205917358398 -1.89533805847168 3.537010192871094 -1.687995910644531 L 21.88073921203613 6.593361854553223 C 23.57853889465332 7.36057186126709 23.63960838317871 8.716571807861328 23.61789894104004 9.1138916015625 C 23.59619903564453 9.511191368103027 23.38777923583984 10.85233116149902 21.61740875244141 11.42970180511475 L 14.12530994415283 13.87897491455078 L 12.09039878845215 21.77585220336914 C 11.58110904693604 23.75300216674805 10.14639854431152 23.90667152404785 9.718809127807617 23.90667152404785 C 9.219518661499023 23.90667152404785 7.99069881439209 23.72149085998535 7.365169525146484 22.00624084472656 L -0.04456138610839844 1.628911972045898 C -0.5203704833984375 0.3232612609863281 -0.1054210662841797 -0.5663681030273438 0.1843280792236328 -0.9803390502929688 C 0.6380691528320312 -1.628627777099609 1.369968414306641 -2.000448226928711 2.192338943481445 -2.000448226928711 Z" stroke="none" fill="#fff"/>
      </g>
    </g>
    <g id="puntero-del-mouse-negro-2" data-name="puntero-del-mouse-negro" transform="translate(790.508 10589.011) rotate(-81)">
      <g id="Trazado_101708-2" data-name="Trazado 101708" transform="translate(0)" fill="#afafaf">
        <path d="M 9.718818664550781 22.90667152404785 C 9.718780517578125 22.90667152404785 9.71878719329834 22.90667152404785 9.718749046325684 22.90667152404785 C 9.359918594360352 22.90664100646973 8.699058532714844 22.74513244628906 8.304648399353027 21.66363143920898 L 0.8952386379241943 1.287171483039856 C 0.5903886556625366 0.4506815373897552 0.7858686447143555 -0.09584847837686539 1.003588676452637 -0.406918466091156 C 1.26758861541748 -0.7841184735298157 1.700868606567383 -1.00044846534729 2.192338705062866 -1.00044846534729 C 2.48473858833313 -1.00044846534729 2.798598766326904 -0.9251784682273865 3.125208616256714 -0.7767184972763062 L 21.46927833557129 7.504791736602783 C 22.55715942382812 7.996381759643555 22.63598823547363 8.755701065063477 22.61938858032227 9.059341430664062 C 22.60280799865723 9.362941741943359 22.44174957275391 10.10903167724609 21.30734825134277 10.47899150848389 L 13.96701908111572 12.87864112854004 L 13.46391868591309 13.04311180114746 L 13.04500865936279 12.71956157684326 L 12.29336166381836 12.13900279998779 L 12.94957828521729 13.19499111175537 L 13.1752986907959 13.55821132659912 L 13.06858825683594 13.97233200073242 L 11.12203884124756 21.52632141113281 C 10.80112743377686 22.77206993103027 10.03390121459961 22.90667152404785 9.718818664550781 22.90667152404785 Z" stroke="none"/>
        <path d="M 2.192340850830078 -0.00045013427734375 C 1.779378890991211 -0.00045013427734375 1.619295120239258 0.3534641265869141 1.835029602050781 0.9454421997070312 L 9.244118690490723 21.32101058959961 C 9.535079956054688 22.11883354187012 9.941848754882812 22.09905052185059 10.15366840362549 21.27678108215332 L 12.10021877288818 13.72280120849609 L 9.331988334655762 9.26815128326416 C 8.883331298828125 8.546565055847168 9.064881324768066 8.380126953125 9.737009048461914 8.900961875915527 L 13.65628910064697 11.92814159393311 L 20.99728775024414 9.528271675109863 C 21.80557823181152 9.26466178894043 21.83176803588867 8.765951156616211 21.05780792236328 8.416211128234863 L 2.711418151855469 0.1336517333984375 C 2.511161804199219 0.04262733459472656 2.336341857910156 -0.00045013427734375 2.192340850830078 -0.00045013427734375 M 2.192338943481445 -2.000448226928711 C 2.627826690673828 -2.000448226928711 3.080205917358398 -1.89533805847168 3.537010192871094 -1.687995910644531 L 21.88073921203613 6.593361854553223 C 23.57853889465332 7.36057186126709 23.63960838317871 8.716571807861328 23.61789894104004 9.1138916015625 C 23.59619903564453 9.511191368103027 23.38777923583984 10.85233116149902 21.61740875244141 11.42970180511475 L 14.12530994415283 13.87897491455078 L 12.09039878845215 21.77585220336914 C 11.58110904693604 23.75300216674805 10.14639854431152 23.90667152404785 9.718809127807617 23.90667152404785 C 9.219518661499023 23.90667152404785 7.99069881439209 23.72149085998535 7.365169525146484 22.00624084472656 L -0.04456138610839844 1.628911972045898 C -0.5203704833984375 0.3232612609863281 -0.1054210662841797 -0.5663681030273438 0.1843280792236328 -0.9803390502929688 C 0.6380691528320312 -1.628627777099609 1.369968414306641 -2.000448226928711 2.192338943481445 -2.000448226928711 Z" stroke="none" fill="#fff"/>
      </g>
    </g>
    <g id="puntero-del-mouse-negro-3" data-name="puntero-del-mouse-negro" transform="translate(594.098 10569.898) rotate(-2)">
      <g id="Trazado_101708-3" data-name="Trazado 101708" transform="translate(0)" fill="#afafaf">
        <path d="M 9.718818664550781 22.90667152404785 C 9.718780517578125 22.90667152404785 9.71878719329834 22.90667152404785 9.718749046325684 22.90667152404785 C 9.359918594360352 22.90664100646973 8.699058532714844 22.74513244628906 8.304648399353027 21.66363143920898 L 0.8952386379241943 1.287171483039856 C 0.5903886556625366 0.4506815373897552 0.7858686447143555 -0.09584847837686539 1.003588676452637 -0.406918466091156 C 1.26758861541748 -0.7841184735298157 1.700868606567383 -1.00044846534729 2.192338705062866 -1.00044846534729 C 2.48473858833313 -1.00044846534729 2.798598766326904 -0.9251784682273865 3.125208616256714 -0.7767184972763062 L 21.46927833557129 7.504791736602783 C 22.55715942382812 7.996381759643555 22.63598823547363 8.755701065063477 22.61938858032227 9.059341430664062 C 22.60280799865723 9.362941741943359 22.44174957275391 10.10903167724609 21.30734825134277 10.47899150848389 L 13.96701908111572 12.87864112854004 L 13.46391868591309 13.04311180114746 L 13.04500865936279 12.71956157684326 L 12.29336166381836 12.13900279998779 L 12.94957828521729 13.19499111175537 L 13.1752986907959 13.55821132659912 L 13.06858825683594 13.97233200073242 L 11.12203884124756 21.52632141113281 C 10.80112743377686 22.77206993103027 10.03390121459961 22.90667152404785 9.718818664550781 22.90667152404785 Z" stroke="none"/>
        <path d="M 2.192340850830078 -0.00045013427734375 C 1.779378890991211 -0.00045013427734375 1.619295120239258 0.3534641265869141 1.835029602050781 0.9454421997070312 L 9.244118690490723 21.32101058959961 C 9.535079956054688 22.11883354187012 9.941848754882812 22.09905052185059 10.15366840362549 21.27678108215332 L 12.10021877288818 13.72280120849609 L 9.331988334655762 9.26815128326416 C 8.883331298828125 8.546565055847168 9.064881324768066 8.380126953125 9.737009048461914 8.900961875915527 L 13.65628910064697 11.92814159393311 L 20.99728775024414 9.528271675109863 C 21.80557823181152 9.26466178894043 21.83176803588867 8.765951156616211 21.05780792236328 8.416211128234863 L 2.711418151855469 0.1336517333984375 C 2.511161804199219 0.04262733459472656 2.336341857910156 -0.00045013427734375 2.192340850830078 -0.00045013427734375 M 2.192338943481445 -2.000448226928711 C 2.627826690673828 -2.000448226928711 3.080205917358398 -1.89533805847168 3.537010192871094 -1.687995910644531 L 21.88073921203613 6.593361854553223 C 23.57853889465332 7.36057186126709 23.63960838317871 8.716571807861328 23.61789894104004 9.1138916015625 C 23.59619903564453 9.511191368103027 23.38777923583984 10.85233116149902 21.61740875244141 11.42970180511475 L 14.12530994415283 13.87897491455078 L 12.09039878845215 21.77585220336914 C 11.58110904693604 23.75300216674805 10.14639854431152 23.90667152404785 9.718809127807617 23.90667152404785 C 9.219518661499023 23.90667152404785 7.99069881439209 23.72149085998535 7.365169525146484 22.00624084472656 L -0.04456138610839844 1.628911972045898 C -0.5203704833984375 0.3232612609863281 -0.1054210662841797 -0.5663681030273438 0.1843280792236328 -0.9803390502929688 C 0.6380691528320312 -1.628627777099609 1.369968414306641 -2.000448226928711 2.192338943481445 -2.000448226928711 Z" stroke="none" fill="#fff"/>
      </g>
    </g>
    <g id="puntero-del-mouse-negro-4" data-name="puntero-del-mouse-negro" transform="translate(593.136 10388.953) rotate(77)">
      <g id="Trazado_101708-4" data-name="Trazado 101708" transform="translate(0)" fill="#afafaf">
        <path d="M 9.718818664550781 22.90667152404785 C 9.718780517578125 22.90667152404785 9.71878719329834 22.90667152404785 9.718749046325684 22.90667152404785 C 9.359918594360352 22.90664100646973 8.699058532714844 22.74513244628906 8.304648399353027 21.66363143920898 L 0.8952386379241943 1.287171483039856 C 0.5903886556625366 0.4506815373897552 0.7858686447143555 -0.09584847837686539 1.003588676452637 -0.406918466091156 C 1.26758861541748 -0.7841184735298157 1.700868606567383 -1.00044846534729 2.192338705062866 -1.00044846534729 C 2.48473858833313 -1.00044846534729 2.798598766326904 -0.9251784682273865 3.125208616256714 -0.7767184972763062 L 21.46927833557129 7.504791736602783 C 22.55715942382812 7.996381759643555 22.63598823547363 8.755701065063477 22.61938858032227 9.059341430664062 C 22.60280799865723 9.362941741943359 22.44174957275391 10.10903167724609 21.30734825134277 10.47899150848389 L 13.96701908111572 12.87864112854004 L 13.46391868591309 13.04311180114746 L 13.04500865936279 12.71956157684326 L 12.29336166381836 12.13900279998779 L 12.94957828521729 13.19499111175537 L 13.1752986907959 13.55821132659912 L 13.06858825683594 13.97233200073242 L 11.12203884124756 21.52632141113281 C 10.80112743377686 22.77206993103027 10.03390121459961 22.90667152404785 9.718818664550781 22.90667152404785 Z" stroke="none"/>
        <path d="M 2.192340850830078 -0.00045013427734375 C 1.779378890991211 -0.00045013427734375 1.619295120239258 0.3534641265869141 1.835029602050781 0.9454421997070312 L 9.244118690490723 21.32101058959961 C 9.535079956054688 22.11883354187012 9.941848754882812 22.09905052185059 10.15366840362549 21.27678108215332 L 12.10021877288818 13.72280120849609 L 9.331988334655762 9.26815128326416 C 8.883331298828125 8.546565055847168 9.064881324768066 8.380126953125 9.737009048461914 8.900961875915527 L 13.65628910064697 11.92814159393311 L 20.99728775024414 9.528271675109863 C 21.80557823181152 9.26466178894043 21.83176803588867 8.765951156616211 21.05780792236328 8.416211128234863 L 2.711418151855469 0.1336517333984375 C 2.511161804199219 0.04262733459472656 2.336341857910156 -0.00045013427734375 2.192340850830078 -0.00045013427734375 M 2.192338943481445 -2.000448226928711 C 2.627826690673828 -2.000448226928711 3.080205917358398 -1.89533805847168 3.537010192871094 -1.687995910644531 L 21.88073921203613 6.593361854553223 C 23.57853889465332 7.36057186126709 23.63960838317871 8.716571807861328 23.61789894104004 9.1138916015625 C 23.59619903564453 9.511191368103027 23.38777923583984 10.85233116149902 21.61740875244141 11.42970180511475 L 14.12530994415283 13.87897491455078 L 12.09039878845215 21.77585220336914 C 11.58110904693604 23.75300216674805 10.14639854431152 23.90667152404785 9.718809127807617 23.90667152404785 C 9.219518661499023 23.90667152404785 7.99069881439209 23.72149085998535 7.365169525146484 22.00624084472656 L -0.04456138610839844 1.628911972045898 C -0.5203704833984375 0.3232612609863281 -0.1054210662841797 -0.5663681030273438 0.1843280792236328 -0.9803390502929688 C 0.6380691528320312 -1.628627777099609 1.369968414306641 -2.000448226928711 2.192338943481445 -2.000448226928711 Z" stroke="none" fill="#fff"/>
      </g>
    </g>
    <text id="Tomar_acciones_apropiadas." data-name="Tomar acciones
apropiadas." transform="translate(592 10442)" fill="#12263f" font-size="12" font-family="Roboto-Regular, Roboto"><tspan x="0" y="0">Tomar acciones</tspan><tspan x="0" y="15">apropiadas.</tspan></text>
    <text id="Verificar_los_efectos_de_la_implementación." data-name="Verificar
los efectos de
la implementación." transform="translate(592 10511)" fill="#12263f" font-size="12" font-family="Roboto-Regular, Roboto"><tspan x="0" y="0">Verificar</tspan><tspan x="0" y="15">los efectos de</tspan><tspan x="0" y="30">la implementación.</tspan></text>
    <text id="Realizar_el_trabajo." data-name="Realizar
el trabajo." transform="translate(712 10568)" fill="#12263f" font-size="11" font-family="Roboto-Regular, Roboto"><tspan x="0" y="0">Realizar</tspan><tspan x="0" y="15">el trabajo.</tspan></text>
    <text id="Estimular_entrenamiento_y_educación." data-name="Estimular 
entrenamiento y
educación." transform="translate(751 10497)" fill="#12263f" font-size="11" font-family="Roboto-Regular, Roboto"><tspan x="0" y="0">Estimular </tspan><tspan x="0" y="13">entrenamiento y</tspan><tspan x="0" y="26">educación.</tspan></text>
    <text id="Determinar_métodos_para_alcanzar_metas." data-name="Determinar 
métodos para
alcanzar metas." transform="translate(751 10445)" fill="#12263f" font-size="11" font-family="Roboto-Regular, Roboto"><tspan x="0" y="0">Determinar </tspan><tspan x="0" y="13">métodos para</tspan><tspan x="0" y="26">alcanzar metas.</tspan></text>
    <text id="Determinar_metas_y_objetivos." data-name="Determinar 
metas y 
objetivos." transform="translate(712 10382)" fill="#12263f" font-size="11" font-family="Roboto-Regular, Roboto"><tspan x="0" y="0">Determinar </tspan><tspan x="0" y="13">metas y </tspan><tspan x="0" y="26">objetivos.</tspan></text>
  </g>
</svg>
